<?xml version="1.0" encoding="UTF-8" standalone="no"?><svg xmlns="http://www.w3.org/2000/svg" xmlns:xlink="http://www.w3.org/1999/xlink" contentScriptType="application/ecmascript" contentStyleType="text/css" height="577px" preserveAspectRatio="none" style="width:1170px;height:577px;" version="1.1" viewBox="0 0 1170 577" width="1170px" zoomAndPan="magnify"><defs><filter height="300%" id="fnb64kljn44bt" width="300%" x="-1" y="-1"><feGaussianBlur result="blurOut" stdDeviation="2.0"/><feColorMatrix in="blurOut" result="blurOut2" type="matrix" values="0 0 0 0 0 0 0 0 0 0 0 0 0 0 0 0 0 0 .4 0"/><feOffset dx="4.0" dy="4.0" in="blurOut2" result="blurOut3"/><feBlend in="SourceGraphic" in2="blurOut3" mode="normal"/></filter></defs><g><rect fill="#FEFECE" filter="url(#fnb64kljn44bt)" height="50" rx="12.5" ry="12.5" style="stroke: #A80036; stroke-width: 1.5;" width="51" x="816.5258" y="8"/><line style="stroke: #A80036; stroke-width: 1.5;" x1="816.5258" x2="867.5258" y1="34.4883" y2="34.4883"/><text fill="#000000" font-family="sans-serif" font-size="14" lengthAdjust="spacingAndGlyphs" textLength="31" x="826.5258" y="26.5352">start</text><rect fill="#FEFECE" filter="url(#fnb64kljn44bt)" height="50" rx="12.5" ry="12.5" style="stroke: #A80036; stroke-width: 1.5;" width="58" x="659.0258" y="135"/><line style="stroke: #A80036; stroke-width: 1.5;" x1="659.0258" x2="717.0258" y1="161.4883" y2="161.4883"/><text fill="#000000" font-family="sans-serif" font-size="14" lengthAdjust="spacingAndGlyphs" textLength="38" x="669.0258" y="153.5352">travel</text><rect fill="#FEFECE" filter="url(#fnb64kljn44bt)" height="50" rx="12.5" ry="12.5" style="stroke: #A80036; stroke-width: 1.5;" width="141" x="629.5258" y="8"/><line style="stroke: #A80036; stroke-width: 1.5;" x1="629.5258" x2="770.5258" y1="34.4883" y2="34.4883"/><text fill="#000000" font-family="sans-serif" font-size="14" lengthAdjust="spacingAndGlyphs" textLength="121" x="639.5258" y="26.5352">approach_sample</text><rect fill="#FEFECE" filter="url(#fnb64kljn44bt)" height="50" rx="12.5" ry="12.5" style="stroke: #A80036; stroke-width: 1.5;" width="122" x="345.0258" y="8"/><line style="stroke: #A80036; stroke-width: 1.5;" x1="345.0258" x2="467.0258" y1="34.4883" y2="34.4883"/><text fill="#000000" font-family="sans-serif" font-size="14" lengthAdjust="spacingAndGlyphs" textLength="102" x="355.0258" y="26.5352">pickup_sample</text><rect fill="#FEFECE" filter="url(#fnb64kljn44bt)" height="50" rx="12.5" ry="12.5" style="stroke: #A80036; stroke-width: 1.5;" width="109" x="537.5258" y="262"/><line style="stroke: #A80036; stroke-width: 1.5;" x1="537.5258" x2="646.5258" y1="288.4883" y2="288.4883"/><text fill="#000000" font-family="sans-serif" font-size="14" lengthAdjust="spacingAndGlyphs" textLength="89" x="547.5258" y="280.5352">return_home</text><rect fill="#FEFECE" filter="url(#fnb64kljn44bt)" height="50" rx="12.5" ry="12.5" style="stroke: #A80036; stroke-width: 1.5;" width="97" x="823.5258" y="516"/><line style="stroke: #A80036; stroke-width: 1.5;" x1="823.5258" x2="920.5258" y1="542.4883" y2="542.4883"/><text fill="#000000" font-family="sans-serif" font-size="14" lengthAdjust="spacingAndGlyphs" textLength="77" x="833.5258" y="534.5352">break_loop</text><rect fill="#FEFECE" filter="url(#fnb64kljn44bt)" height="50" rx="12.5" ry="12.5" style="stroke: #A80036; stroke-width: 1.5;" width="144" x="871.0258" y="262"/><line style="stroke: #A80036; stroke-width: 1.5;" x1="871.0258" x2="1015.0258" y1="288.4883" y2="288.4883"/><text fill="#000000" font-family="sans-serif" font-size="14" lengthAdjust="spacingAndGlyphs" textLength="124" x="881.0258" y="280.5352">unstuck_on_travel</text><rect fill="#FEFECE" filter="url(#fnb64kljn44bt)" height="50" rx="12.5" ry="12.5" style="stroke: #A80036; stroke-width: 1.5;" width="160" x="49.0258" y="262"/><line style="stroke: #A80036; stroke-width: 1.5;" x1="49.0258" x2="209.0258" y1="288.4883" y2="288.4883"/><text fill="#000000" font-family="sans-serif" font-size="14" lengthAdjust="spacingAndGlyphs" textLength="140" x="59.0258" y="280.5352">turn_away_on_travel</text><rect fill="#FEFECE" filter="url(#fnb64kljn44bt)" height="50" rx="12.5" ry="12.5" style="stroke: #A80036; stroke-width: 1.5;" width="165" x="313.5258" y="262"/><line style="stroke: #A80036; stroke-width: 1.5;" x1="313.5258" x2="478.5258" y1="288.4883" y2="288.4883"/><text fill="#000000" font-family="sans-serif" font-size="14" lengthAdjust="spacingAndGlyphs" textLength="145" x="323.5258" y="280.5352">turn_away_on_return</text><rect fill="#FEFECE" filter="url(#fnb64kljn44bt)" height="50" rx="12.5" ry="12.5" style="stroke: #A80036; stroke-width: 1.5;" width="149" x="406.5258" y="389"/><line style="stroke: #A80036; stroke-width: 1.5;" x1="406.5258" x2="555.5258" y1="415.4883" y2="415.4883"/><text fill="#000000" font-family="sans-serif" font-size="14" lengthAdjust="spacingAndGlyphs" textLength="129" x="416.5258" y="407.5352">unstuck_on_return</text><rect fill="#FEFECE" filter="url(#fnb64kljn44bt)" height="50" rx="12.5" ry="12.5" style="stroke: #A80036; stroke-width: 1.5;" width="50" x="591.0258" y="389"/><line style="stroke: #A80036; stroke-width: 1.5;" x1="591.0258" x2="641.0258" y1="415.4883" y2="415.4883"/><text fill="#000000" font-family="sans-serif" font-size="14" lengthAdjust="spacingAndGlyphs" textLength="30" x="601.0258" y="407.5352">stop</text><!--link start to travel--><path d="M833.011,58.2115 C826.5683,73.3306 816.6243,92.0691 803.0258,105 C780.1719,126.7319 747.1282,141.3118 722.3201,149.9682 " fill="none" id="start-travel" style="stroke: #A80036; stroke-width: 1.0;"/><polygon fill="#A80036" points="717.4737,151.6209,727.2831,152.5019,722.2061,150.0071,724.7009,144.9301,717.4737,151.6209" style="stroke: #A80036; stroke-width: 1.0;"/><text fill="#000000" font-family="sans-serif" font-size="13" lengthAdjust="spacingAndGlyphs" textLength="115" x="816.0258" y="101.5684">is_near_front_wall</text><!--link approach_sample to travel--><path d="M690.2774,63.0652 C688.1066,71.0805 686.1246,79.795 685.0258,88 C682.95,103.5002 683.6167,121.0296 684.8424,134.9111 " fill="none" id="approach_sample-travel" style="stroke: #A80036; stroke-width: 1.0;"/><polygon fill="#A80036" points="691.6472,58.1757,685.3675,65.7629,690.2983,62.9903,693.0709,67.9211,691.6472,58.1757" style="stroke: #A80036; stroke-width: 1.0;"/><text fill="#000000" font-family="sans-serif" font-size="13" lengthAdjust="spacingAndGlyphs" textLength="112" x="686.0258" y="101.5684">is_sample_nearby</text><!--link pickup_sample to approach_sample--><path d="M472.3443,33 C519.0785,33 581.5753,33 629.2675,33 " fill="none" id="pickup_sample-approach_sample" style="stroke: #A80036; stroke-width: 1.0;"/><polygon fill="#A80036" points="467.3,33,476.3,37,472.3,33,476.3,29,467.3,33" style="stroke: #A80036; stroke-width: 1.0;"/><text fill="#000000" font-family="sans-serif" font-size="13" lengthAdjust="spacingAndGlyphs" textLength="126" x="485.2758" y="26.5684">get_in_pickup_zone</text><!--link pickup_sample to travel--><path d="M461.7399,58.0911 C519.0032,83.8799 606.3277,123.2069 654.0207,144.6857 " fill="none" id="pickup_sample-travel" style="stroke: #A80036; stroke-width: 1.0;"/><polygon fill="#A80036" points="658.7915,146.8342,652.2278,139.4913,654.2325,144.7811,648.9428,146.7857,658.7915,146.8342" style="stroke: #A80036; stroke-width: 1.0;"/><text fill="#000000" font-family="sans-serif" font-size="13" lengthAdjust="spacingAndGlyphs" textLength="43" x="565.0258" y="101.5684">pickup</text><!--link travel to return_home--><path d="M676.7832,185.1342 C669.7857,199.5123 660.0357,217.5123 649.0258,232 C642.0899,241.1268 633.6273,250.1414 625.3676,258.1493 " fill="none" id="travel-return_home" style="stroke: #A80036; stroke-width: 1.0;"/><polygon fill="#A80036" points="621.3367,261.9956,630.6094,258.6763,624.954,258.5438,625.0865,252.8885,621.3367,261.9956" style="stroke: #A80036; stroke-width: 1.0;"/><text fill="#000000" font-family="sans-serif" font-size="13" lengthAdjust="spacingAndGlyphs" textLength="105" x="661.0258" y="228.5684">finish_collecting</text><!--link travel to break_loop--><path d="M717.3652,171.953 C736.3698,181.1041 760.2468,195.4834 775.0258,215 C844.892,307.2628 864.6348,449.3314 870.0517,510.8671 " fill="none" id="travel-break_loop" style="stroke: #A80036; stroke-width: 1.0;"/><polygon fill="#A80036" points="870.4754,515.863,873.7004,506.5571,870.0528,510.8809,865.7291,507.2333,870.4754,515.863" style="stroke: #A80036; stroke-width: 1.0;"/><text fill="#000000" font-family="sans-serif" font-size="13" lengthAdjust="spacingAndGlyphs" textLength="65" x="843.0258" y="355.5684">is_circling</text><!--link break_loop to travel--><path d="M909.4746,515.9018 C934.7285,497.2876 967.1315,469.8693 988.0258,439 C1044.1233,356.1214 1090.6466,275.6328 1011.0258,215 C966.0024,180.7138 795.8402,166.4991 722.2651,161.8676 " fill="none" id="break_loop-travel" style="stroke: #A80036; stroke-width: 1.0;"/><polygon fill="#A80036" points="717.1376,161.5506,725.8736,166.0984,722.1281,161.8592,726.3673,158.1137,717.1376,161.5506" style="stroke: #A80036; stroke-width: 1.0;"/><text fill="#000000" font-family="sans-serif" font-size="13" lengthAdjust="spacingAndGlyphs" textLength="115" x="1043.0258" y="355.5684">is_near_front_wall</text><!--link travel to unstuck_on_travel--><path d="M717.1897,168.4481 C747.8844,177.866 797.1812,194.5022 837.0258,215 C861.1186,227.3944 886.2783,244.2914 906.037,258.6016 " fill="none" id="travel-unstuck_on_travel" style="stroke: #A80036; stroke-width: 1.0;"/><polygon fill="#A80036" points="910.4245,261.801,905.5094,253.2663,906.3845,258.855,900.7958,259.7302,910.4245,261.801" style="stroke: #A80036; stroke-width: 1.0;"/><text fill="#000000" font-family="sans-serif" font-size="13" lengthAdjust="spacingAndGlyphs" textLength="53" x="865.0258" y="228.5684">is_stuck</text><!--link unstuck_on_travel to travel--><path d="M943.8234,261.827 C942.9303,246.3347 939.1131,227.1785 927.0258,215 C898.6389,186.3989 781.5655,170.0238 722.4752,163.4316 " fill="none" id="unstuck_on_travel-travel" style="stroke: #A80036; stroke-width: 1.0;"/><polygon fill="#A80036" points="717.2875,162.8614,725.7965,167.821,722.2576,163.4078,726.6707,159.8689,717.2875,162.8614" style="stroke: #A80036; stroke-width: 1.0;"/><text fill="#000000" font-family="sans-serif" font-size="13" lengthAdjust="spacingAndGlyphs" textLength="64" x="938.0258" y="228.5684">spin_back</text><!--link unstuck_on_travel to break_loop--><path d="M935.9585,312.2831 C922.8011,359.3532 894.6056,460.2214 880.47,510.7911 " fill="none" id="unstuck_on_travel-break_loop" style="stroke: #A80036; stroke-width: 1.0;"/><polygon fill="#A80036" points="879.0645,515.8192,885.3399,508.2285,880.4107,511.0038,877.6353,506.0746,879.0645,515.8192" style="stroke: #A80036; stroke-width: 1.0;"/><text fill="#000000" font-family="sans-serif" font-size="13" lengthAdjust="spacingAndGlyphs" textLength="65" x="914.0258" y="419.0684">is_circling</text><!--link travel to turn_away_on_travel--><path d="M658.803,161.2856 C532.0578,166.9996 35.2646,190.8754 13.0258,215 C-5.1975,234.7686 15.5028,251.1544 44.211,263.2739 " fill="none" id="travel-turn_away_on_travel" style="stroke: #A80036; stroke-width: 1.0;"/><polygon fill="#A80036" points="48.8825,265.1823,42.0635,258.0758,44.2538,263.2915,39.0382,265.4817,48.8825,265.1823" style="stroke: #A80036; stroke-width: 1.0;"/><text fill="#000000" font-family="sans-serif" font-size="13" lengthAdjust="spacingAndGlyphs" textLength="115" x="14.0258" y="228.5684">is_near_front_wall</text><!--link turn_away_on_travel to travel--><path d="M145.5166,261.9615 C157.6928,245.6871 175.7941,225.5922 197.0258,215 C277.6154,174.7949 556.3694,163.5414 653.9596,160.795 " fill="none" id="turn_away_on_travel-travel" style="stroke: #A80036; stroke-width: 1.0;"/><polygon fill="#A80036" points="659.0219,160.6557,649.9151,156.9051,654.0238,160.7934,650.1355,164.9021,659.0219,160.6557" style="stroke: #A80036; stroke-width: 1.0;"/><text fill="#000000" font-family="sans-serif" font-size="13" lengthAdjust="spacingAndGlyphs" textLength="137" x="198.0258" y="228.5684">turn_away_until_clear</text><!--link travel to turn_away_on_return--><path d="M658.8601,162.5852 C580.353,169.8363 369.1171,191.3863 349.0258,215 C337.7081,228.302 346.5527,244.4843 359.494,258.1356 " fill="none" id="travel-turn_away_on_return" style="stroke: #A80036; stroke-width: 1.0;"/><polygon fill="#A80036" points="363.2394,261.9144,359.7446,252.7065,359.7195,258.3633,354.0627,258.3382,363.2394,261.9144" style="stroke: #A80036; stroke-width: 1.0;"/><text fill="#000000" font-family="sans-serif" font-size="13" lengthAdjust="spacingAndGlyphs" textLength="115" x="350.0258" y="228.5684">is_near_front_wall</text><!--link turn_away_on_return to travel--><path d="M427.4007,261.8749 C447.7162,246.5977 475.2823,227.6584 502.0258,215 C552.5641,191.0788 615.7928,175.0504 653.9881,166.7396 " fill="none" id="turn_away_on_return-travel" style="stroke: #A80036; stroke-width: 1.0;"/><polygon fill="#A80036" points="658.978,165.6669,649.3383,163.6481,654.0897,166.7179,651.0199,171.4693,658.978,165.6669" style="stroke: #A80036; stroke-width: 1.0;"/><text fill="#000000" font-family="sans-serif" font-size="13" lengthAdjust="spacingAndGlyphs" textLength="137" x="503.0258" y="228.5684">turn_away_until_clear</text><!--link return_home to unstuck_on_return--><path d="M537.1947,302.0515 C485.6881,316.4496 415.9257,336.7305 412.0258,342 C400.632,357.3952 411.9701,372.93 428.5216,385.6088 " fill="none" id="return_home-unstuck_on_return" style="stroke: #A80036; stroke-width: 1.0;"/><polygon fill="#A80036" points="432.8312,388.7689,427.9386,380.2212,428.799,385.8123,423.208,386.6727,432.8312,388.7689" style="stroke: #A80036; stroke-width: 1.0;"/><text fill="#000000" font-family="sans-serif" font-size="13" lengthAdjust="spacingAndGlyphs" textLength="53" x="413.0258" y="355.5684">is_stuck</text><!--link unstuck_on_return to return_home--><path d="M495.0808,388.7774 C503.6825,374.3699 515.4325,356.3699 528.0258,342 C536.1367,332.7449 545.8155,323.6418 555.1599,315.5874 " fill="none" id="unstuck_on_return-return_home" style="stroke: #A80036; stroke-width: 1.0;"/><polygon fill="#A80036" points="559.1387,312.2024,549.6919,314.9877,555.3305,315.4424,554.8758,321.0809,559.1387,312.2024" style="stroke: #A80036; stroke-width: 1.0;"/><text fill="#000000" font-family="sans-serif" font-size="13" lengthAdjust="spacingAndGlyphs" textLength="64" x="529.0258" y="355.5684">spin_back</text><!--link unstuck_on_return to break_loop--><path d="M555.9519,438.3366 C632.8264,463.3061 750.5085,501.5302 818.4907,523.6114 " fill="none" id="unstuck_on_return-break_loop" style="stroke: #A80036; stroke-width: 1.0;"/><polygon fill="#A80036" points="823.2983,525.1729,815.9743,518.5881,818.5429,523.6282,813.5028,526.1968,823.2983,525.1729" style="stroke: #A80036; stroke-width: 1.0;"/><text fill="#000000" font-family="sans-serif" font-size="13" lengthAdjust="spacingAndGlyphs" textLength="65" x="700.0258" y="482.5684">is_circling</text><!--link return_home to stop--><path d="M596.7674,312.0911 C600.6627,332.7035 606.1924,361.9647 610.3279,383.8484 " fill="none" id="return_home-stop" style="stroke: #A80036; stroke-width: 1.0;"/><polygon fill="#A80036" points="611.294,388.961,613.553,379.3747,610.3655,384.048,605.6922,380.8604,611.294,388.961" style="stroke: #A80036; stroke-width: 1.0;"/><text fill="#000000" font-family="sans-serif" font-size="13" lengthAdjust="spacingAndGlyphs" textLength="160" x="606.0258" y="355.5684">is_near_starting_position</text><!--
@startuml
'scale 350 width

State start
State travel
State approach_sample
start - -> travel : is_near_front_wall
travel -up-> approach_sample : is_sample_nearby
approach_sample -left-> pickup_sample : get_in_pickup_zone
pickup_sample - -> travel : pickup

travel -down-> return_home : finish_collecting

travel - -> break_loop : is_circling
break_loop - -> travel : is_near_front_wall

travel - -> unstuck_on_travel : is_stuck
unstuck_on_travel - -> travel : spin_back
unstuck_on_travel - -> break_loop : is_circling

travel -right-> turn_away_on_travel : is_near_front_wall
turn_away_on_travel - -> travel : turn_away_until_clear

travel -right-> turn_away_on_return : is_near_front_wall
turn_away_on_return - -> travel : turn_away_until_clear

return_home - -> unstuck_on_return : is_stuck
unstuck_on_return - -> return_home : spin_back
unstuck_on_return - -> break_loop : is_circling



return_home - -> stop : is_near_starting_position

@enduml

PlantUML version 1.2017.15(Mon Jul 03 09:45:34 PDT 2017)
(GPL source distribution)
Java Runtime: Java(TM) SE Runtime Environment
JVM: Java HotSpot(TM) 64-Bit Server VM
Java Version: 1.8.0_131-b11
Operating System: Mac OS X
OS Version: 10.12.4
Default Encoding: UTF-8
Language: en
Country: US
--></g></svg>